<?xml version="1.0" standalone="no"?>
<svg viewBox="0 0 200 200" xmlns="http://www.w3.org/2000/svg">
  <path fill="#24A148" d="M34,-50C48.6,-43.5,68,-41.7,78.2,-32C88.4,-22.3,89.3,-4.7,83.8,9.8C78.2,24.3,66.2,35.7,54.4,44.3C42.5,53,30.8,59,17.5,65.7C4.2,72.5,-10.7,79.9,-21.8,75.9C-32.8,71.8,-39.9,56.3,-47.7,43.4C-55.5,30.6,-64.1,20.5,-67.2,8.8C-70.2,-3,-67.7,-16.4,-63,-29.6C-58.2,-42.9,-51.3,-56,-40.5,-64.2C-29.6,-72.4,-14.8,-75.7,-2.5,-71.8C9.7,-67.8,19.4,-56.6,34,-50Z" transform="translate(100 100)" />
</svg>
