<?xml version="1.0" standalone="no"?>
<svg viewBox="0 0 200 200" xmlns="http://www.w3.org/2000/svg">
  <path fill="#24A148" d="M44,-76.3C56.4,-69,65.4,-56,71.2,-42.3C77.1,-28.6,79.8,-14.3,79.4,-0.2C79,13.9,75.6,27.7,67.9,38.3C60.3,48.9,48.5,56.3,36.5,63.8C24.5,71.4,12.2,79.1,0.1,78.9C-12,78.7,-24,70.5,-36.4,63.2C-48.8,55.9,-61.6,49.4,-72.1,39C-82.6,28.7,-90.8,14.3,-91.7,-0.5C-92.5,-15.3,-86,-30.6,-74.9,-39.9C-63.7,-49.2,-48,-52.6,-34.8,-59.5C-21.6,-66.4,-10.8,-76.7,2.5,-81.1C15.8,-85.4,31.6,-83.7,44,-76.3Z" transform="translate(100 100)" />
</svg>
